<?xml version="1.0" standalone="no"?>
<!DOCTYPE svg PUBLIC "-//W3C//DTD SVG 20010904//EN"
 "http://www.w3.org/TR/2001/REC-SVG-20010904/DTD/svg10.dtd">
<svg version="1.0" xmlns="http://www.w3.org/2000/svg"
 width="338.000000pt" height="338.000000pt" viewBox="0 0 338.000000 338.000000"
 preserveAspectRatio="xMidYMid meet">

<g transform="translate(0.000000,338.000000) scale(0.100000,-0.100000)"
fill="#000000" stroke="none">
<path d="M1110 2090 l0 -400 580 0 580 0 0 400 0 400 -580 0 -580 0 0 -400z
m460 251 c10 -21 4 -51 -11 -51 -5 0 -9 -51 -9 -113 0 -106 2 -115 23 -136
l24 -22 2 66 c2 48 -2 69 -13 81 -20 20 -20 38 0 58 19 20 25 20 49 2 17 -12
18 -18 8 -48 -7 -18 -13 -68 -14 -111 -2 -71 0 -80 24 -105 23 -25 25 -34 25
-119 1 -74 -2 -93 -14 -93 -11 0 -14 18 -14 88 l0 88 -65 64 -65 64 0 118 c0
65 -4 118 -9 118 -15 0 -21 30 -11 51 6 11 21 19 35 19 14 0 29 -8 35 -19z
m310 0 c10 -21 4 -51 -11 -51 -5 0 -9 -53 -9 -118 l0 -118 -65 -64 c-36 -35
-64 -69 -64 -75 1 -5 1 -45 0 -88 -1 -58 -4 -78 -13 -75 -9 3 -13 32 -14 92
-1 80 1 90 24 117 23 27 25 38 23 107 -1 42 -7 92 -14 110 -10 30 -9 36 8 48
24 18 30 18 49 -2 20 -20 20 -38 0 -58 -11 -12 -15 -33 -13 -81 l2 -66 24 22
c21 21 23 30 23 131 0 84 -4 113 -15 124 -19 19 -19 29 1 48 21 22 51 20 64
-3z m-386 -253 c8 -13 8 -23 -2 -38 -23 -37 -15 -73 27 -114 38 -37 40 -41 43
-112 2 -51 -1 -75 -9 -78 -17 -7 -20 1 -22 74 -2 61 -5 68 -42 105 -28 30 -39
49 -39 72 0 17 -7 36 -15 43 -30 25 -9 74 29 68 10 -2 24 -11 30 -20z m454 10
c16 -16 15 -43 -3 -58 -8 -7 -15 -26 -15 -43 0 -22 -12 -43 -45 -78 -43 -46
-45 -51 -45 -108 0 -33 -4 -63 -10 -66 -6 -4 -10 23 -10 72 0 79 0 79 39 117
42 41 57 89 34 107 -26 23 -8 69 27 69 9 0 21 -5 28 -12z"/>
<path d="M1605 2200 c-3 -5 -1 -10 4 -10 6 0 11 5 11 10 0 6 -2 10 -4 10 -3 0
-8 -4 -11 -10z"/>
<path d="M1450 2070 c0 -5 5 -10 10 -10 6 0 10 5 10 10 0 6 -4 10 -10 10 -5 0
-10 -4 -10 -10z"/>
<path d="M1910 2070 c0 -5 5 -10 10 -10 6 0 10 5 10 10 0 6 -4 10 -10 10 -5 0
-10 -4 -10 -10z"/>
<path d="M922 1538 l3 -33 765 0 765 0 3 33 3 32 -315 0 c-199 0 -317 -4 -321
-10 -4 -6 -60 -10 -135 -10 -75 0 -131 4 -135 10 -4 6 -122 10 -321 10 l-315
0 3 -32z"/>
<path d="M861 1377 c-49 -29 -65 -100 -36 -158 30 -57 118 -68 166 -20 16 16
29 34 29 40 0 17 -51 13 -72 -6 -25 -23 -72 -7 -76 26 -9 63 28 97 73 67 27
-17 75 -22 75 -7 0 6 -10 22 -23 36 -27 32 -98 43 -136 22z"/>
<path d="M1084 1356 c-28 -28 -34 -42 -34 -76 0 -57 50 -110 104 -110 71 0
116 43 116 110 0 67 -45 110 -116 110 -28 0 -44 -8 -70 -34z m107 -26 c14 -8
19 -21 19 -50 0 -40 -18 -60 -54 -60 -41 0 -62 73 -30 104 18 19 38 20 65 6z"/>
<path d="M1310 1280 l0 -110 25 0 c24 0 25 3 25 57 0 64 8 63 31 -5 13 -38 21
-48 42 -50 23 -3 27 2 43 52 10 31 21 56 24 56 4 0 5 -25 2 -55 l-4 -55 31 0
31 0 0 110 0 110 -34 0 c-33 0 -35 -2 -61 -71 -15 -39 -31 -67 -35 -62 -4 4
-17 36 -30 71 -21 59 -24 62 -56 62 l-34 0 0 -110z"/>
<path d="M1600 1281 l0 -111 29 0 c27 0 30 3 33 38 3 34 5 37 38 40 46 5 70
28 70 67 0 55 -19 69 -99 73 l-71 4 0 -111z m113 45 c7 -17 -11 -36 -35 -36
-13 0 -18 8 -18 25 0 20 5 25 24 25 13 0 26 -6 29 -14z"/>
<path d="M1801 1306 c4 -73 7 -88 28 -110 31 -33 96 -36 132 -7 21 17 24 29
27 110 l4 91 -31 0 -31 0 0 -79 c0 -71 -2 -80 -20 -86 -37 -12 -50 11 -50 91
l0 74 -31 0 -31 0 3 -84z"/>
<path d="M2020 1365 c0 -21 5 -25 30 -25 l30 0 0 -85 c0 -84 0 -85 25 -85 25
0 25 1 25 85 l0 85 30 0 c25 0 30 4 30 25 0 25 -1 25 -85 25 -84 0 -85 0 -85
-25z"/>
<path d="M2220 1280 l0 -110 70 0 c63 0 70 2 70 20 0 17 -7 20 -40 20 -36 0
-40 3 -40 25 0 22 4 25 35 25 28 0 35 4 35 20 0 16 -7 20 -35 20 -28 0 -35 4
-35 20 0 17 7 20 40 20 36 0 40 3 40 25 0 24 -2 25 -70 25 l-70 0 0 -110z"/>
<path d="M2390 1280 l0 -110 30 0 c28 0 30 2 30 40 0 22 4 40 8 40 5 0 17 -18
27 -40 16 -35 22 -40 52 -40 l34 0 -23 39 -23 40 23 21 c31 29 29 73 -4 99
-21 16 -41 21 -90 21 l-64 0 0 -110z m115 35 c0 -14 -8 -21 -27 -23 -24 -3
-28 0 -28 23 0 23 4 26 28 23 19 -2 27 -9 27 -23z"/>
<path d="M954 1079 c-3 -5 6 -9 20 -9 25 0 26 -2 26 -60 0 -33 4 -60 10 -60 6
0 10 27 10 60 0 58 1 60 27 60 46 0 17 12 -36 15 -29 1 -54 -2 -57 -6z"/>
<path d="M1100 1085 c-1 0 -2 -30 -3 -68 l-2 -67 50 2 50 1 -42 4 c-38 4 -43
7 -43 28 0 20 6 24 38 28 l37 4 -37 1 c-33 2 -38 5 -38 27 0 23 4 25 40 25 22
0 40 3 40 8 0 4 -20 7 -45 7 -25 0 -45 0 -45 0z"/>
<path d="M1263 1080 c-68 -28 -48 -133 26 -133 17 0 37 5 44 12 9 9 4 10 -20
5 -45 -9 -73 10 -73 50 0 42 20 59 65 54 39 -4 48 6 13 16 -28 7 -27 7 -55 -4z"/>
<path d="M1380 1021 c0 -41 4 -71 10 -71 6 0 10 14 10 30 0 28 2 30 40 30 38
0 40 -2 40 -30 0 -16 5 -30 10 -30 6 0 10 30 10 71 0 44 -4 68 -10 64 -5 -3
-10 -19 -10 -36 0 -27 -2 -29 -40 -29 -38 0 -40 2 -40 29 0 17 -4 33 -10 36
-6 4 -10 -20 -10 -64z"/>
<path d="M1552 1015 c1 -80 1 -80 7 -21 l6 60 43 -52 c24 -29 48 -52 53 -52
12 0 11 127 -1 135 -6 4 -10 -16 -10 -52 l0 -58 -28 35 c-15 19 -37 46 -49 60
l-22 25 1 -80z"/>
<path d="M1742 1080 c-54 -22 -48 -109 9 -129 51 -18 99 13 99 64 0 51 -57 86
-108 65z m85 -36 c15 -24 15 -29 2 -53 -28 -50 -109 -32 -109 25 0 55 76 75
107 28z"/>
<path d="M1892 1023 l-2 -73 48 2 47 1 -42 4 -42 4 -4 67 -3 67 -2 -72z"/>
<path d="M2026 1069 c-52 -41 -23 -122 44 -122 40 0 70 29 70 67 0 37 -7 49
-37 65 -31 16 -47 14 -77 -10z m86 -16 c37 -33 10 -93 -43 -93 -28 0 -59 31
-59 59 0 44 67 66 102 34z"/>
<path d="M2210 1077 c-33 -16 -47 -58 -32 -92 24 -52 114 -54 120 -2 2 15 -1
27 -7 27 -6 0 -11 -11 -11 -25 0 -22 -4 -25 -34 -25 -38 0 -58 19 -58 55 0 40
21 57 64 53 42 -4 51 6 16 16 -30 8 -29 8 -58 -7z"/>
<path d="M2320 1085 c0 -2 14 -26 30 -52 17 -26 29 -56 26 -65 -2 -10 0 -18 5
-18 5 0 9 9 9 21 0 11 12 41 26 65 15 25 24 47 21 50 -2 3 -15 -14 -29 -36
l-24 -42 -27 41 c-25 37 -37 49 -37 36z"/>
</g>
</svg>
